<svg width="15" height="15" viewBox="0 0 15 15" fill="none" xmlns="http://www.w3.org/2000/svg">
<g id="Group">
<path id="Vector" d="M9.66659 8.5835H8.58325V9.66683H9.66659V8.5835Z" fill="#FF7875"/>
<path id="Vector_2" d="M9.66659 3.25H8.58325V4.33333H9.66659V3.25Z" fill="#FF7875"/>
<path id="Vector_3" d="M8.58333 9.66699H7.5V10.7503H8.58333V9.66699Z" fill="#FF7875"/>
<path id="Vector_4" d="M8.58333 3.25H7.5V4.33333H8.58333V3.25Z" fill="#FF7875"/>
<path id="Vector_5" d="M7.50008 9.66699H6.41675V10.7503H7.50008V9.66699Z" fill="#FF7875"/>
<path id="Vector_6" d="M7.50008 3.25H6.41675V4.33333H7.50008V3.25Z" fill="#FF7875"/>
<path id="Vector_7" d="M6.41659 3.25H5.33325V4.33333H6.41659V3.25Z" fill="#FF7875"/>
<path id="Vector_8" d="M5.33333 4.25H4.25V5.33333H5.33333V4.25Z" fill="#FF7875"/>
<path id="Vector_9" d="M4.33333 8.5835H3.25V9.66683H4.33333V8.5835Z" fill="#FF7875"/>
<path id="Vector_10" d="M4.33333 7.5H3.25V8.58333H4.33333V7.5Z" fill="#FF7875"/>
<path id="Vector_11" d="M4.33333 6.4165H3.25V7.49984H4.33333V6.4165Z" fill="#FF7875"/>
<path id="Vector_12" d="M4.33333 5.3335H3.25V6.41683H4.33333V5.3335Z" fill="#FF7875"/>
<g id="Group_2">
<path id="Vector_13" d="M12.8333 4.25V3.16667H11.75V2.08333H10.6667V1H4.25V2.08333H3.16667V3.16667H2.08333V4.25H1V10.6667H2.08333V12.8333H4.25V13.9167H10.6667V12.8333H11.75V11.75H12.8333V10.6667H13.9167V4.25H12.8333ZM12.8333 6.41667V9.66667H11.75V10.75H10.6667V11.8333H9.58333V12.9167H5.33333V11.8333H4.25V10.75H3.16667V9.66667H2.08333V5.41667H3.16667V4.33333H4.25V3.25H5.33333V2.16667H9.58333V3.25H10.6667V4.33333H11.75V5.41667H12.8333V6.5V6.41667Z" fill="#FFD390"/>
<path id="Vector_14" d="M11.75 7.50049V5.33382H10.6667V4.25049H5.33333V5.33382H4.25V10.6672H5.33333V11.7505H9.58333V10.6672H10.6667V9.58382H11.75V7.41715V7.50049ZM8.58333 9.66715V10.7505H6.41667V8.58382H5.33333V6.41715H6.41667V5.33382H8.58333V6.41715H9.66667V9.66715H8.58333Z" fill="#FFD390"/>
</g>
<path id="Vector_15" d="M13.9166 9.66699H12.8333V10.7503H13.9166V9.66699Z" fill="#FFBE80"/>
<path id="Vector_16" d="M13.9166 8.5835H12.8333V9.66683H13.9166V8.5835Z" fill="#DB7664"/>
<path id="Vector_17" d="M13.9166 7.5H12.8333V8.58333H13.9166V7.5Z" fill="#FFBE80"/>
<path id="Vector_18" d="M13.9166 6.4165H12.8333V7.49984H13.9166V6.4165Z" fill="#DB7664"/>
<path id="Vector_19" d="M13.9166 5.3335H12.8333V6.41683H13.9166V5.3335Z" fill="#FFBE80"/>
<path id="Vector_20" d="M13.9166 4.25H12.8333V5.33333H13.9166V4.25Z" fill="#FFBE80"/>
<path id="Vector_21" d="M12.8333 10.75H11.75V11.8333H12.8333V10.75Z" fill="#DB7664"/>
<path id="Vector_22" d="M12.8333 9.66699H11.75V10.7503H12.8333V9.66699Z" fill="#FFBE80"/>
<path id="Vector_23" d="M11.8333 11.75H10.75V12.8333H11.8333V11.75Z" fill="#DB7664"/>
<path id="Vector_24" d="M11.8333 10.75H10.75V11.8333H11.8333V10.75Z" fill="#FFBE80"/>
<path id="Vector_25" d="M11.8333 7.5H10.75V8.58333H11.8333V7.5Z" fill="#FF916A"/>
<path id="Vector_26" d="M11.8333 6.4165H10.75V7.49984H11.8333V6.4165Z" fill="#FF916A"/>
<path id="Vector_27" d="M11.8333 2.16699H10.75V3.25033H11.8333V2.16699Z" fill="#FF916A"/>
<path id="Vector_28" d="M10.7498 12.8335H9.6665V13.9168H10.7498V12.8335Z" fill="#FF916A"/>
<path id="Vector_29" d="M10.7498 11.75H9.6665V12.8333H10.7498V11.75Z" fill="#FFBE80"/>
<path id="Vector_30" d="M9.66659 8.5835H8.58325V9.66683H9.66659V8.5835Z" fill="#DB7664"/>
<path id="Vector_31" d="M9.66659 7.5H8.58325V8.58333H9.66659V7.5Z" fill="#FFEAC7"/>
<path id="Vector_32" d="M9.66659 6.4165H8.58325V7.49984H9.66659V6.4165Z" fill="#FFEAC7"/>
<path id="Vector_33" d="M9.66659 3.25H8.58325V4.33333H9.66659V3.25Z" fill="#DB7664"/>
<path id="Vector_34" d="M8.58333 9.66699H7.5V10.7503H8.58333V9.66699Z" fill="#DB7664"/>
<path id="Vector_35" d="M8.58333 8.5835H7.5V9.66683H8.58333V8.5835Z" fill="#FFEAC7"/>
<path id="Vector_36" d="M8.58333 7.5H7.5V8.58333H8.58333V7.5Z" fill="#FFEAC7"/>
<path id="Vector_37" d="M8.58333 6.4165H7.5V7.49984H8.58333V6.4165Z" fill="#FFEAC7"/>
<path id="Vector_38" d="M8.58333 5.3335H7.5V6.41683H8.58333V5.3335Z" fill="#FFEAC7"/>
<path id="Vector_39" d="M8.58333 3.25H7.5V4.33333H8.58333V3.25Z" fill="#DB7664"/>
<path id="Vector_40" d="M7.50008 9.66699H6.41675V10.7503H7.50008V9.66699Z" fill="#DB7664"/>
<path id="Vector_41" d="M7.50008 8.5835H6.41675V9.66683H7.50008V8.5835Z" fill="#FFEAC7"/>
<path id="Vector_42" d="M7.50008 7.5H6.41675V8.58333H7.50008V7.5Z" fill="#FFEAC7"/>
<path id="Vector_43" d="M7.50008 6.4165H6.41675V7.49984H7.50008V6.4165Z" fill="#FFEAC7"/>
<path id="Vector_44" d="M7.50008 5.3335H6.41675V6.41683H7.50008V5.3335Z" fill="#FFEAC7"/>
<path id="Vector_45" d="M7.50008 3.25H6.41675V4.33333H7.50008V3.25Z" fill="#DB7664"/>
<path id="Vector_46" d="M6.41659 7.5H5.33325V8.58333H6.41659V7.5Z" fill="#FFEAC7"/>
<path id="Vector_47" d="M6.41659 6.4165H5.33325V7.49984H6.41659V6.4165Z" fill="#FFEAC7"/>
<path id="Vector_48" d="M6.41659 3.25H5.33325V4.33333H6.41659V3.25Z" fill="#DB7664"/>
<path id="Vector_49" d="M5.33333 4.25H4.25V5.33333H5.33333V4.25Z" fill="#DB7664"/>
<path id="Vector_50" d="M4.33333 11.75H3.25V12.8333H4.33333V11.75Z" fill="#FFBE80"/>
<path id="Vector_51" d="M4.33333 8.5835H3.25V9.66683H4.33333V8.5835Z" fill="#DB7664"/>
<path id="Vector_52" d="M4.33333 7.5H3.25V8.58333H4.33333V7.5Z" fill="#DB7664"/>
<path id="Vector_53" d="M4.33333 6.4165H3.25V7.49984H4.33333V6.4165Z" fill="#DB7664"/>
<path id="Vector_54" d="M4.33333 5.3335H3.25V6.41683H4.33333V5.3335Z" fill="#DB7664"/>
<g id="Group_3">
<path id="Vector_55" d="M5.33333 1.0835H4.25V2.16683H5.33333V1.0835Z" fill="#FFEAC7"/>
<path id="Vector_56" d="M4.33333 2.16699H3.25V3.25033H4.33333V2.16699Z" fill="#FFEAC7"/>
<path id="Vector_57" d="M3.25008 3.25H2.16675V4.33333H3.25008V3.25Z" fill="#FFEAC7"/>
<path id="Vector_58" d="M1.0835 5.33333V6.41667V7.5V8.58333V9.66667H2.16683V8.58333V7.5V6.41667V5.33333V4.25H1.0835V5.33333Z" fill="#FFEAC7"/>
</g>
<path id="Vector_59" d="M12.8333 8.5835H11.75V9.66683H12.8333V8.5835Z" fill="#DB7664"/>
<path id="Vector_60" d="M12.8333 7.5H11.75V8.58333H12.8333V7.5Z" fill="#DB7664"/>
<path id="Vector_61" d="M12.8333 6.4165H11.75V7.49984H12.8333V6.4165Z" fill="#DB7664"/>
<path id="Vector_62" d="M12.8333 5.3335H11.75V6.41683H12.8333V5.3335Z" fill="#DB7664"/>
<path id="Vector_63" d="M11.8333 9.66699H10.75V10.7503H11.8333V9.66699Z" fill="#DB7664"/>
<path id="Vector_64" d="M11.8333 7.5H10.75V8.58333H11.8333V7.5Z" fill="#FFBE80"/>
<path id="Vector_65" d="M11.8333 6.4165H10.75V7.49984H11.8333V6.4165Z" fill="#FFBE80"/>
<path id="Vector_66" d="M11.8333 4.25H10.75V5.33333H11.8333V4.25Z" fill="#DB7664"/>
<path id="Vector_67" d="M10.7498 10.75H9.6665V11.8333H10.7498V10.75Z" fill="#DB7664"/>
<path id="Vector_68" d="M10.7498 9.66699H9.6665V10.7503H10.7498V9.66699Z" fill="#FFBE80"/>
<path id="Vector_69" d="M10.7498 5.3335H9.6665V6.41683H10.7498V5.3335Z" fill="#FFBE80"/>
<path id="Vector_70" d="M10.7498 3.25H9.6665V4.33333H10.7498V3.25Z" fill="#DB7664"/>
<path id="Vector_71" d="M9.66659 11.75H8.58325V12.8333H9.66659V11.75Z" fill="#DB7664"/>
<path id="Vector_72" d="M9.66659 7.5H8.58325V8.58333H9.66659V7.5Z" fill="#DB7664"/>
<path id="Vector_73" d="M9.66659 6.4165H8.58325V7.49984H9.66659V6.4165Z" fill="#DB7664"/>
<path id="Vector_74" d="M9.66659 2.16699H8.58325V3.25033H9.66659V2.16699Z" fill="#DB7664"/>
<path id="Vector_75" d="M8.58333 11.75H7.5V12.8333H8.58333V11.75Z" fill="#DB7664"/>
<path id="Vector_76" d="M8.58333 8.5835H7.5V9.66683H8.58333V8.5835Z" fill="#DB7664"/>
<path id="Vector_77" d="M8.58333 7.5H7.5V8.58333H8.58333V7.5Z" fill="#FFBE80"/>
<path id="Vector_78" d="M8.58333 6.4165H7.5V7.49984H8.58333V6.4165Z" fill="#FFBE80"/>
<path id="Vector_79" d="M8.58333 5.3335H7.5V6.41683H8.58333V5.3335Z" fill="#DB7664"/>
<path id="Vector_80" d="M8.58333 2.16699H7.5V3.25033H8.58333V2.16699Z" fill="#DB7664"/>
<path id="Vector_81" d="M7.50008 11.75H6.41675V12.8333H7.50008V11.75Z" fill="#DB7664"/>
<path id="Vector_82" d="M7.50008 8.5835H6.41675V9.66683H7.50008V8.5835Z" fill="#DB7664"/>
<path id="Vector_83" d="M7.50008 7.5H6.41675V8.58333H7.50008V7.5Z" fill="#FFBE80"/>
<path id="Vector_84" d="M7.50008 5.3335H6.41675V6.41683H7.50008V5.3335Z" fill="#DB7664"/>
<path id="Vector_85" d="M7.50008 2.16699H6.41675V3.25033H7.50008V2.16699Z" fill="#DB7664"/>
<path id="Vector_86" d="M6.41659 11.75H5.33325V12.8333H6.41659V11.75Z" fill="#DB7664"/>
<path id="Vector_87" d="M6.41659 10.75H5.33325V11.8333H6.41659V10.75Z" fill="#FFBE80"/>
<path id="Vector_88" d="M6.41659 7.5H5.33325V8.58333H6.41659V7.5Z" fill="#DB7664"/>
<path id="Vector_89" d="M6.41659 6.4165H5.33325V7.49984H6.41659V6.4165Z" fill="#DB7664"/>
<path id="Vector_90" d="M6.41659 2.16699H5.33325V3.25033H6.41659V2.16699Z" fill="#DB7664"/>
<path id="Vector_91" d="M5.33333 10.75H4.25V11.8333H5.33333V10.75Z" fill="#DB7664"/>
<path id="Vector_92" d="M5.33333 3.25H4.25V4.33333H5.33333V3.25Z" fill="#DB7664"/>
<path id="Vector_93" d="M4.33333 9.66699H3.25V10.7503H4.33333V9.66699Z" fill="#DB7664"/>
<g id="Group_4">
<path id="Vector_94" d="M13.9166 8.5835H12.8333V9.66683H13.9166V8.5835Z" fill="#FFB07A"/>
<path id="Vector_95" d="M13.9166 6.4165H12.8333V7.49984H13.9166V6.4165Z" fill="#FFB07A"/>
<path id="Vector_96" d="M12.8333 10.75H11.75V11.8333H12.8333V10.75Z" fill="#FFB07A"/>
<path id="Vector_97" d="M11.8333 11.75H10.75V12.8333H11.8333V11.75Z" fill="#FFB07A"/>
<path id="Vector_98" d="M9.66659 8.5835H8.58325V9.66683H9.66659V8.5835Z" fill="#FFB07A"/>
<path id="Vector_99" d="M7.49992 3.25H6.41659H5.33325V4.25H6.41659H7.49992H8.58325H9.66659V3.25H8.58325H7.49992Z" fill="#FFB07A"/>
<path id="Vector_100" d="M6.41675 9.66699V10.7503H7.50008H8.58341V9.66699H7.50008H6.41675Z" fill="#FFB07A"/>
<path id="Vector_101" d="M5.33333 4.25049H4.25V5.33382H5.33333V4.25049Z" fill="#FFB07A"/>
<path id="Vector_102" d="M3.25 6.41683V7.50016V8.5835V9.66683H4.25V8.5835V7.50016V6.41683V5.3335H3.25V6.41683Z" fill="#FFB07A"/>
</g>
<path id="Vector_103" d="M4.33333 4.25H3.25V5.33333H4.33333V4.25Z" fill="#DB7664"/>
<path id="Vector_104" d="M3.25008 8.5835H2.16675V9.66683H3.25008V8.5835Z" fill="#DB7664"/>
<path id="Vector_105" d="M3.25008 7.5H2.16675V8.58333H3.25008V7.5Z" fill="#DB7664"/>
<path id="Vector_106" d="M3.25008 6.4165H2.16675V7.49984H3.25008V6.4165Z" fill="#DB7664"/>
<path id="Vector_107" d="M3.25008 5.3335H2.16675V6.41683H3.25008V5.3335Z" fill="#DB7664"/>
<g id="Group_5">
<path id="Vector_108" d="M11.75 6.41683V7.50016V8.5835V9.66683H12.8333V8.5835V7.50016V6.41683V5.3335H11.75V6.41683Z" fill="#3F3F3F"/>
<path id="Vector_109" d="M11.8333 9.66699H10.75V10.7503H11.8333V9.66699Z" fill="#3F3F3F"/>
<path id="Vector_110" d="M11.8333 4.25H10.75V5.33333H11.8333V4.25Z" fill="#3F3F3F"/>
<path id="Vector_111" d="M10.7498 10.75H9.6665V11.8333H10.7498V10.75Z" fill="#3F3F3F"/>
<path id="Vector_112" d="M10.7498 3.25H9.6665V4.33333H10.7498V3.25Z" fill="#3F3F3F"/>
<path id="Vector_113" d="M7.49992 11.75H6.41659H5.33325V12.8333H6.41659H7.49992H8.58325H9.66659V11.75H8.58325H7.49992Z" fill="#3F3F3F"/>
<path id="Vector_114" d="M7.49992 3.25033H8.58325H9.66659V2.16699H8.58325H7.49992H6.41659H5.33325V3.25033H6.41659H7.49992Z" fill="#3F3F3F"/>
<path id="Vector_115" d="M5.33333 10.75H4.25V11.8333H5.33333V10.75Z" fill="#3F3F3F"/>
<path id="Vector_116" d="M5.33333 3.25H4.25V4.33333H5.33333V3.25Z" fill="#3F3F3F"/>
<path id="Vector_117" d="M4.33333 9.66699H3.25V10.7503H4.33333V9.66699Z" fill="#3F3F3F"/>
<path id="Vector_118" d="M4.33333 4.25H3.25V5.33333H4.33333V4.25Z" fill="#3F3F3F"/>
<path id="Vector_119" d="M3.25008 7.50016V6.41683V5.3335H2.16675V6.41683V7.50016V8.5835V9.66683H3.25008V8.5835V7.50016Z" fill="#3F3F3F"/>
<path id="Vector_120" d="M13.9167 4.25V5.33333V6.41667V7.5V8.58333V9.66667V10.75H15.0001V9.66667V8.58333V7.5V6.41667V5.33333V4.25H13.9167Z" fill="#3F3F3F"/>
<path id="Vector_121" d="M13.9166 10.75H12.8333V11.8333H13.9166V10.75Z" fill="#3F3F3F"/>
<path id="Vector_122" d="M13.9166 3.25H12.8333V4.33333H13.9166V3.25Z" fill="#3F3F3F"/>
<path id="Vector_123" d="M12.8333 11.75H11.75V12.8333H12.8333V11.75Z" fill="#3F3F3F"/>
<path id="Vector_124" d="M12.8333 2.16699H11.75V3.25033H12.8333V2.16699Z" fill="#3F3F3F"/>
<path id="Vector_125" d="M11.8333 12.8335H10.75V13.9168H11.8333V12.8335Z" fill="#3F3F3F"/>
<path id="Vector_126" d="M11.8333 1.0835H10.75V2.16683H11.8333V1.0835Z" fill="#3F3F3F"/>
<path id="Vector_127" d="M8.58333 13.9165H7.5H6.41667H5.33333H4.25V14.9998H5.33333H6.41667H7.5H8.58333H9.66667H10.75V13.9165H9.66667H8.58333Z" fill="#3F3F3F"/>
<path id="Vector_128" d="M6.41667 1.08333H7.5H8.58333H9.66667H10.75V0H9.66667H8.58333H7.5H6.41667H5.33333H4.25V1.08333H5.33333H6.41667Z" fill="#3F3F3F"/>
<path id="Vector_129" d="M4.33333 12.8335H3.25V13.9168H4.33333V12.8335Z" fill="#3F3F3F"/>
<path id="Vector_130" d="M4.33333 1.0835H3.25V2.16683H4.33333V1.0835Z" fill="#3F3F3F"/>
<path id="Vector_131" d="M3.25008 11.75H2.16675V12.8333H3.25008V11.75Z" fill="#3F3F3F"/>
<path id="Vector_132" d="M3.25008 2.16699H2.16675V3.25033H3.25008V2.16699Z" fill="#3F3F3F"/>
<path id="Vector_133" d="M2.16683 10.75H1.0835V11.8333H2.16683V10.75Z" fill="#3F3F3F"/>
<path id="Vector_134" d="M2.16683 3.25H1.0835V4.33333H2.16683V3.25Z" fill="#3F3F3F"/>
<path id="Vector_135" d="M1.08333 8.58333V7.5V6.41667V5.33333V4.25H0V5.33333V6.41667V7.5V8.58333V9.66667V10.75H1.08333V9.66667V8.58333Z" fill="#3F3F3F"/>
</g>
</g>
</svg>
